<svg width="24" height="24" viewBox="0 0 24 24" fill="none" xmlns="http://www.w3.org/2000/svg">
<mask id="mask0_20388_164736" style="mask-type:alpha" maskUnits="userSpaceOnUse" x="0" y="0" width="24" height="24">
<rect width="24" height="24" fill="#D9D9D9"/>
</mask>
<g mask="url(#mask0_20388_164736)">
<path fill-rule="evenodd" clip-rule="evenodd" d="M23.6846 15.3376C23.3742 14.8668 22.831 14.3959 21.8997 15.3376C20.9683 16.2793 20.3086 15.3376 19.8041 14.4684C19.2997 13.5991 20.262 12 20.262 12L20.4069 11.1362C20.4069 11.1362 19.649 10.0691 20.1534 9.77939C20.6579 9.48963 20.3474 9.07174 20.1534 8.45602C19.9593 7.84029 21.5891 7.15212 21.5891 6.60885C21.5891 6.06557 21.3563 5.99313 20.8518 6.78997C20.3474 7.58676 18.7564 6.75373 18.1743 6.53643C17.5922 6.31911 17.3594 7.44189 16.8161 7.51434C16.2729 7.58677 16.234 6.21046 14.9535 6.75373C13.673 7.29704 13.2072 5.99314 13.1684 4.50817C13.1297 3.02319 17.6698 3.96489 18.4459 3.89244C19.2221 3.81998 20.3474 0.668944 20.262 0.125444C20.1766 -0.418084 19.4936 0.9587 18.6788 1.32089C17.8638 1.68309 18.0967 0.850059 17.6957 1.49365C17.2947 2.13727 15.7296 1.68309 14.8759 1.32089C14.0223 0.9587 12.4717 3.27671 11.8896 3.60268C11.3074 3.92864 10.9566 2.76966 10.3745 3.60268C9.79245 4.43573 8.9387 5.99314 7.85222 5.70094C6.76573 5.40882 8.35661 4.32705 7.85222 4.18221C7.34771 4.0373 6.99853 3.38536 6.49396 3.02319C5.98956 2.661 6.47324 4.66196 5.64536 5.29941C4.81741 5.93688 3.33136 4.93047 4.10752 5.94462C4.88357 6.95876 5.48422 8.27493 4.55289 8.45603C3.62163 8.63713 3.04043 8.45603 2.65234 8.74579C2.26426 9.03554 1.33293 8.27492 1.17777 8.23872C1.02261 8.2025 0.944907 8.41982 0.983697 9.21663C1.0226 10.0134 2.65233 9.58408 2.65233 10.3085C2.65233 11.0328 1.37178 11.1362 1.37178 11.1362C1.37178 11.1362 1.57351 11.4656 2.10909 11.7861C2.64455 12.1066 2.88514 13.6716 2.10909 14.4684C1.33299 15.2652 2.76877 15.7361 2.10909 16.388C1.44942 17.04 0.556885 15.9172 0.0912829 16.2793C-0.374495 16.6415 1.0226 17.9454 2.45833 18.6698C3.89417 19.3942 2.80756 20.3359 2.53596 20.6618C2.26425 20.9878 2.92405 20.7343 4.20454 21.1689C5.48516 21.6036 6.45527 22.7626 6.8433 23.3059C7.23126 23.8491 6.8433 23.7767 7.22354 23.9713C7.60379 24.1658 8.66716 23.3059 9.4432 23.3783C10.2192 23.4507 10.8013 24.0664 11.1351 23.9586C11.4688 23.8508 10.8401 22.9436 12.1207 22.6177C13.4012 22.2917 14.643 23.7767 14.8759 23.9216C15.1087 24.0664 16.0776 23.0106 16.3492 21.8878C16.6208 20.765 18.7563 21.5673 19.1832 21.1689C19.6101 20.7705 18.834 19.865 19.1444 19.2131C19.4548 18.5611 21.7057 19.9375 21.8997 19.2131C22.0938 18.4887 22.5204 16.8589 23.4129 16.388C24.3055 15.9172 23.995 15.8085 23.6846 15.3377L23.6846 15.3376ZM10.9958 21.006C7.19174 21.006 4.10791 18.1277 4.10791 14.5771C4.10791 11.0265 7.19174 8.14821 10.9958 8.14821C14.7999 8.14821 17.8836 11.0265 17.8836 14.5771C17.8836 18.1277 14.7999 21.006 10.9958 21.006Z" fill="white"/>
</g>
</svg>
