<svg width="16" height="17" viewBox="0 0 16 17" fill="none" xmlns="http://www.w3.org/2000/svg">
<rect x="3.86647" y="14.7812" width="8.85472" height="1.37283" fill="#C4C5CB"/>
<rect x="3.86647" y="13.8359" width="8.85472" height="0.634934" fill="#C4C5CB"/>
<path d="M15.3789 3.88385C15.0852 3.88385 14.847 4.12207 14.847 4.41583C14.847 4.63412 14.9786 4.82119 15.1667 4.90323L12.1986 10.442H11.538L12.4142 2.70172C12.746 2.69656 13.0137 2.42663 13.0137 2.09357C13.0137 1.75705 12.7411 1.48438 12.4045 1.48438C12.068 1.48438 11.7953 1.75705 11.7953 2.09357C11.7953 2.38513 12.0006 2.62812 12.2741 2.68799L9.94204 10.3906H9.28994L8.25811 1.49912C8.62276 1.44578 8.90383 1.13465 8.90383 0.75507C8.90383 0.33805 8.56579 0 8.14879 0C7.73177 0 7.39372 0.33804 7.39372 0.75507C7.39372 1.1391 7.6815 1.45261 8.0525 1.50037L7.14488 10.3906H6.49281L4.08519 2.66346C4.31804 2.5778 4.48506 2.35609 4.48506 2.09357C4.48506 1.75705 4.21235 1.48438 3.87587 1.48438C3.53932 1.48438 3.26665 1.75705 3.26665 2.09357C3.26665 2.43009 3.53932 2.70276 3.87587 2.70276C3.91896 2.70276 3.9608 2.69797 4.00145 2.68952L4.84541 10.545H4.17616L0.8517 4.89341C1.02946 4.80729 1.15303 4.62675 1.15303 4.41584C1.15303 4.12208 0.91484 3.88386 0.62108 3.88386C0.32726 3.88386 0.0891304 4.12208 0.0891304 4.41584C0.0891304 4.70966 0.32726 4.94782 0.62108 4.94782C0.64852 4.94782 0.67461 4.94388 0.70085 4.93976L3.86726 13.4279H12.722L15.2998 4.93991C15.3259 4.94388 15.3518 4.94781 15.3789 4.94781C15.6727 4.94781 15.9109 4.70965 15.9109 4.41583C15.9109 4.12207 15.6727 3.88385 15.3789 3.88385H15.3789Z" fill="#C4C5CB"/>
</svg>
